<?xml version="1.0" encoding="iso-8859-1"?>
<!-- Generator: Adobe Illustrator 16.0.0, SVG Export Plug-In . SVG Version: 6.00 Build 0)  -->
<!DOCTYPE svg PUBLIC "-//W3C//DTD SVG 1.1//EN" "http://www.w3.org/Graphics/SVG/1.1/DTD/svg11.dtd">
<svg version="1.1" id="Capa_1" xmlns="http://www.w3.org/2000/svg" xmlns:xlink="http://www.w3.org/1999/xlink" x="0px" y="0px"
	 width="46.839px" height="46.839px" viewBox="0 0 46.839 46.839" style="enable-background:new 0 0 46.839 46.839;"
	 xml:space="preserve">
<g>
	<path d="M41.541,11.881c1.744-0.355,3.394-1.203,4.709-2.519c0.781-0.781,0.779-2.045-0.001-2.827
		c-0.781-0.782-2.05-0.78-2.83,0.002c-1.662,1.661-4.256,2.021-6.312,0.875C29.07,2.931,19.028,4.05,12.156,10.029l-4.97-4.97
		l4.749-0.839c0.305-0.054,0.531-0.312,0.543-0.622c0.013-0.309-0.192-0.585-0.491-0.664L0.83,0.021
		c-0.226-0.06-0.467,0.006-0.632,0.171C0.031,0.357-0.034,0.599,0.025,0.825L2.94,11.981c0.078,0.3,0.354,0.504,0.664,0.492
		c0.31-0.013,0.568-0.239,0.622-0.543l0.839-4.748l4.97,4.97c-5.98,6.872-7.103,16.915-2.624,24.95
		c1.147,2.06,0.787,4.658-0.877,6.322l-0.003,0.003c-0.781,0.781-0.78,2.046,0.001,2.827c0.39,0.39,0.901,0.585,1.414,0.585
		c0.513,0,1.025-0.195,1.416-0.586c1.318-1.318,2.166-2.971,2.52-4.719c0.016-0.016,0.033-0.024,0.048-0.039l13.724-13.725
		l4.95,4.95l-1.64,4.917c-0.079,0.237-0.018,0.498,0.159,0.674l1.788,1.787c0.162,0.162,0.396,0.229,0.617,0.175
		c0.222-0.052,0.401-0.216,0.474-0.433l1.432-4.293l1.415,1.415l-1.64,4.917c-0.079,0.237-0.018,0.498,0.159,0.674l1.788,1.788
		c0.162,0.162,0.395,0.228,0.617,0.175c0.222-0.052,0.4-0.216,0.474-0.433l1.431-4.293l1.769,1.768
		c0.293,0.293,0.677,0.439,1.061,0.439c0.385,0,0.769-0.146,1.062-0.439c0.586-0.585,0.586-1.536,0-2.121l-1.763-1.763l4.277-1.426
		c0.217-0.072,0.381-0.251,0.434-0.474s-0.015-0.456-0.176-0.616l-1.788-1.788c-0.176-0.177-0.437-0.237-0.673-0.159l-4.902,1.635
		l-1.415-1.414l4.277-1.426c0.218-0.072,0.382-0.251,0.434-0.473c0.053-0.224-0.015-0.456-0.175-0.617l-1.788-1.787
		c-0.177-0.176-0.438-0.238-0.673-0.159l-4.903,1.634L27.78,25.65L41.541,11.881z M35.158,10.906
		c0.377,0.21,0.768,0.385,1.163,0.539L24.945,22.82l-9.96-9.96C20.592,8.133,28.676,7.292,35.158,10.906z M11.444,36.321
		c-0.153-0.396-0.329-0.788-0.54-1.167c-3.612-6.48-2.768-14.566,1.959-20.172l9.96,9.959L11.444,36.321z"/>
</g>
<g>
</g>
<g>
</g>
<g>
</g>
<g>
</g>
<g>
</g>
<g>
</g>
<g>
</g>
<g>
</g>
<g>
</g>
<g>
</g>
<g>
</g>
<g>
</g>
<g>
</g>
<g>
</g>
<g>
</g>
</svg>
