<svg viewBox="-106 0 512 512" xmlns="http://www.w3.org/2000/svg">
<path style="fill:#010002;" x="0px" y="0px" d="m285 391c-20.03125 0-38.867188-7.800781-53.03125-21.96875-11.28125-11.277344-18.507812-25.523438-20.992188-40.972656 16.949219-6.457032 29.023438-22.871094 29.023438-42.058594 0-11.515625-4.355469-22.03125-11.496094-30 7.144532-7.96875 11.496094-18.484375 11.496094-30 0-16.863281-9.328125-31.582031-23.09375-39.285156l12.632812-37.898438c24.320313-72.960937-29.953124-148.816406-106.539062-148.816406-76.59375 0-130.855469 75.863281-106.539062 148.816406l11.808593 35.421875c-16.550781 6.65625-28.269531 22.859375-28.269531 41.761719 0 11.515625 4.355469 22.03125 11.496094 30-7.140625 7.96875-11.496094 18.484375-11.496094 30 0 13.09375 5.621094 24.890625 14.578125 33.121094-9.324219 25.550781-14.578125 51.21875-14.578125 71.878906 0 66.71875 53.832031 121 120 121 36.488281 0 71.488281-17.644531 94.328125-46.808594 21.804687 10.347656 45.820313 15.808594 70.671875 15.808594h15v-90zm-138.722656 14.414062c-5.203125 9.410157-15.246094 15.585938-26.277344 15.585938-16.542969 0-30-13.457031-30-30 0-15.910156 6.644531-38.742188 17.234375-60h13.445313c2.394531 26.738281 11.171874 52.136719 25.597656 74.414062zm-101.277344-104.414062c-8.269531 0-15-6.730469-15-15s6.730469-15 15-15h150c8.269531 0 15 6.730469 15 15s-6.730469 15-15 15zm-15-75c0-8.269531 6.730469-15 15-15h150c8.269531 0 15 6.730469 15 15s-6.730469 15-15 15h-150c-8.269531 0-15-6.730469-15-15zm71.839844-105.660156c-4.820313-14.441406 5.90625-29.339844 21.160156-29.339844 15.214844 0 25.992188 14.867188 21.160156 29.359375l-20.214844 60.640625h-1.914062zm21.160156-90.339844c56.140625 0 95.894531 55.875 78.078125 109.328125l-13.890625 41.671875h-31.617188l17.050782-51.15625c11.316406-33.941406-14.011719-68.84375-49.621094-68.84375-35.632812 0-60.929688 34.9375-49.621094 68.824219l17.035156 51.175781h-31.601562l-13.890625-41.671875c-17.828125-53.484375 21.964844-109.328125 78.078125-109.328125zm-3 452c-49.625 0-90-40.820312-90-91 0-16.644531 4.496094-38.640625 12.230469-60.292969.917969.054688 1.839843.09375 2.769531.09375h29.277344c-7.949219 18.914063-14.277344 41.042969-14.277344 60.199219 0 33.085938 26.914062 60 60 60 17.851562 0 34.417969-8.074219 45.605469-21.113281.894531.9375 1.800781 1.867187 2.71875 2.785156 6.253906 6.253906 12.929687 11.933594 19.949219 17.035156-17.1875 20.195313-42.261719 32.292969-68.273438 32.292969zm150-31.816406c-30.386719-3.339844-58.53125-16.796875-80.460938-38.722656-21.925781-21.929688-35.371093-50.074219-38.710937-80.460938h30.234375c3.179688 22.355469 13.441406 42.996094 29.691406 59.246094 16.253906 16.25 36.890625 26.519531 59.25 29.699218zm0 0"/></svg>